<svg width="24" height="25" viewBox="0 0 24 25" fill="none" xmlns="http://www.w3.org/2000/svg">
<path d="M12 2.5C17.52 2.5 22 6.98 22 12.5C22 18.02 17.52 22.5 12 22.5C6.48 22.5 2 18.02 2 12.5C2 6.98 6.48 2.5 12 2.5ZM6.02332 15.9163C7.49083 18.1069 9.69511 19.5 12.1597 19.5C14.6243 19.5 16.8286 18.1069 18.2961 15.9163C16.6885 14.4172 14.5312 13.5 12.1597 13.5C9.78821 13.5 7.63095 14.4172 6.02332 15.9163ZM12 11.5C13.6569 11.5 15 10.1568 15 8.5C15 6.84315 13.6569 5.5 12 5.5C10.3431 5.5 9 6.84315 9 8.5C9 10.1568 10.3431 11.5 12 11.5Z" fill="black"/>
</svg>
