<svg width="24" height="25" viewBox="0 0 24 25" fill="none" xmlns="http://www.w3.org/2000/svg">
<path d="M13 21.2095V23.2095H11V21.2095H3C2.44772 21.2095 2 20.7618 2 20.2095V4.20947C2 3.65719 2.44772 3.20947 3 3.20947H9C10.1947 3.20947 11.2671 3.73322 12 4.56365C12.7329 3.73322 13.8053 3.20947 15 3.20947H21C21.5523 3.20947 22 3.65719 22 4.20947V20.2095C22 20.7618 21.5523 21.2095 21 21.2095H13ZM20 19.2095V5.20947H15C13.8954 5.20947 13 6.1049 13 7.20947V19.2095H20ZM11 19.2095V7.20947C11 6.1049 10.1046 5.20947 9 5.20947H4V19.2095H11Z" fill="#4B6DCB"/>
</svg>
