<svg width="101" height="94" viewBox="0 0 101 94" fill="none" xmlns="http://www.w3.org/2000/svg">
<path d="M17.1673 46.9999C17.1673 29.695 32.0912 15.6666 50.5007 15.6666C68.9102 15.6666 83.834 29.695 83.834 46.9999C83.834 64.3049 68.9102 78.3333 50.5007 78.3333C32.0912 78.3333 17.1673 64.3049 17.1673 46.9999ZM50.5007 7.83325C27.4888 7.83325 8.83398 25.3688 8.83398 46.9999C8.83398 68.6309 27.4888 86.1666 50.5007 86.1666C73.5123 86.1666 92.1673 68.6309 92.1673 46.9999C92.1673 25.3688 73.5123 7.83325 50.5007 7.83325ZM73.2386 37.0403L67.3461 31.5012L46.334 51.2526L34.6969 40.3138L28.8044 45.8527L46.334 62.3305L73.2386 37.0403Z" fill="#22C55E"/>
</svg>
