<svg width="22" height="22" viewBox="0 0 22 22" fill="none" xmlns="http://www.w3.org/2000/svg">
<g clip-path="url(#clip0_641_502)">
<path d="M10.9999 10.0681C13.579 10.0681 15.6697 8.15553 15.6697 5.79626C15.6697 3.43698 13.579 1.52441 10.9999 1.52441C8.42083 1.52441 6.33008 3.43698 6.33008 5.79626C6.33008 8.15553 8.42083 10.0681 10.9999 10.0681Z" stroke="black" stroke-width="2" stroke-linecap="round" stroke-linejoin="round"/>
<path d="M20.3394 20.4761V18.3402C20.3394 17.2072 19.8474 16.1207 18.9717 15.3196C18.0959 14.5184 16.9081 14.0684 15.6696 14.0684H6.32997C5.09146 14.0684 3.90367 14.5184 3.02791 15.3196C2.15215 16.1207 1.66016 17.2072 1.66016 18.3402V20.4761" stroke="black" stroke-width="2" stroke-linecap="round" stroke-linejoin="round"/>
</g>
<defs>
<clipPath id="clip0_641_502">
<rect width="22" height="20.9515" fill="white" transform="translate(0 0.524414)"/>
</clipPath>
</defs>
</svg>
