<svg width="38" height="36" viewBox="0 0 38 36" fill="none" xmlns="http://www.w3.org/2000/svg">
<path d="M6.33333 17.0278L0 13.6251L19 3.41675L38 13.6251V26.0209H34.8333V15.3265L31.6667 17.0278V26.7666L31.3142 27.1677C28.414 30.4687 23.9745 32.5834 19 32.5834C14.0254 32.5834 9.58596 30.4687 6.68583 27.1677L6.33333 26.7666V17.0278ZM9.5 18.7292V25.7171C11.8231 28.1413 15.2176 29.6667 19 29.6667C22.7824 29.6667 26.1769 28.1413 28.5 25.7171V18.7292L19 23.8334L9.5 18.7292ZM6.28468 13.6251L19 20.4568L31.7153 13.6251L19 6.79339L6.28468 13.6251Z" fill="black"/>
</svg>
