<svg width="38" height="35" viewBox="0 0 38 35" fill="none" xmlns="http://www.w3.org/2000/svg">
<path d="M6.33333 16.5278L0 13.1251L19 2.91675L38 13.1251V25.5209H34.8333V14.8265L31.6667 16.5278V26.2666L31.3142 26.6677C28.414 29.9687 23.9745 32.0834 19 32.0834C14.0254 32.0834 9.58596 29.9687 6.68583 26.6677L6.33333 26.2666V16.5278ZM9.5 18.2292V25.2171C11.8231 27.6413 15.2176 29.1667 19 29.1667C22.7824 29.1667 26.1769 27.6413 28.5 25.2171V18.2292L19 23.3334L9.5 18.2292ZM6.28468 13.1251L19 19.9568L31.7153 13.1251L19 6.29339L6.28468 13.1251Z" fill="black"/>
</svg>
