<svg width="21" height="24" viewBox="0 0 21 24" fill="none" xmlns="http://www.w3.org/2000/svg">
<g clip-path="url(#clip0_641_522)">
<path d="M17.0127 10.7773H3.0033C1.89799 10.7773 1.00195 11.6954 1.00195 12.8278V20.0045C1.00195 21.137 1.89799 22.055 3.0033 22.055H17.0127C18.1181 22.055 19.0141 21.137 19.0141 20.0045V12.8278C19.0141 11.6954 18.1181 10.7773 17.0127 10.7773Z" stroke="black" stroke-width="2" stroke-linecap="round" stroke-linejoin="round"/>
<path d="M5.00391 10.778V6.67699C5.00391 5.31744 5.53105 4.01357 6.46936 3.05221C7.40768 2.09086 8.6803 1.55078 10.0073 1.55078C11.3343 1.55078 12.6069 2.09086 13.5452 3.05221C14.4835 4.01357 15.0107 5.31744 15.0107 6.67699V10.778" stroke="black" stroke-width="2" stroke-linecap="round" stroke-linejoin="round"/>
</g>
<defs>
<clipPath id="clip0_641_522">
<rect width="21" height="23" fill="white" transform="translate(0 0.5)"/>
</clipPath>
</defs>
</svg>
