<svg width="21" height="23" viewBox="0 0 21 23" fill="none" xmlns="http://www.w3.org/2000/svg">
<g clip-path="url(#clip0_735_583)">
<path d="M5.49609 10.4747V6.37377C5.49609 5.01422 6.02323 3.71034 6.96155 2.74899C7.89986 1.78764 9.17249 1.24756 10.4995 1.24756C11.8264 1.24756 13.0991 1.78764 14.0374 2.74899C14.9757 3.71034 15.5028 5.01422 15.5028 6.37377V10.4747" stroke="black" stroke-width="2" stroke-linecap="round" stroke-linejoin="round"/>
<path d="M17.5049 10.4746H3.49549C2.39018 10.4746 1.49414 11.3926 1.49414 12.5251V19.7018C1.49414 20.8342 2.39018 21.7523 3.49549 21.7523H17.5049C18.6103 21.7523 19.5063 20.8342 19.5063 19.7018V12.5251C19.5063 11.3926 18.6103 10.4746 17.5049 10.4746Z" stroke="black" stroke-width="2" stroke-linecap="round" stroke-linejoin="round"/>
</g>
<defs>
<clipPath id="clip0_735_583">
<rect width="21" height="22.5049" fill="white" transform="translate(0 0.247559)"/>
</clipPath>
</defs>
</svg>
