<svg width="22" height="21" viewBox="0 0 22 21" fill="none" xmlns="http://www.w3.org/2000/svg">
<g clip-path="url(#clip0_735_576)">
<path d="M10.9999 9.5681C13.579 9.5681 15.6697 7.65553 15.6697 5.29626C15.6697 2.93698 13.579 1.02441 10.9999 1.02441C8.42083 1.02441 6.33008 2.93698 6.33008 5.29626C6.33008 7.65553 8.42083 9.5681 10.9999 9.5681Z" stroke="black" stroke-width="2" stroke-linecap="round" stroke-linejoin="round"/>
<path d="M20.3394 19.9756V17.8397C20.3394 16.7068 19.8474 15.6202 18.9717 14.8191C18.0959 14.0179 16.9081 13.5679 15.6696 13.5679H6.32997C5.09146 13.5679 3.90367 14.0179 3.02791 14.8191C2.15215 15.6202 1.66016 16.7068 1.66016 17.8397V19.9756" stroke="black" stroke-width="2" stroke-linecap="round" stroke-linejoin="round"/>
</g>
<defs>
<clipPath id="clip0_735_576">
<rect width="22" height="20.9515" fill="white" transform="translate(0 0.0244141)"/>
</clipPath>
</defs>
</svg>
