<svg width="16" height="17" viewBox="0 0 16 17" fill="none" xmlns="http://www.w3.org/2000/svg">
<path d="M8 16.5C3.58172 16.5 0 12.9182 0 8.5C0 4.08172 3.58172 0.5 8 0.5C12.4182 0.5 16 4.08172 16 8.5C16 12.9182 12.4182 16.5 8 16.5ZM8 14.9C11.5346 14.9 14.4 12.0346 14.4 8.5C14.4 4.96538 11.5346 2.1 8 2.1C4.46538 2.1 1.6 4.96538 1.6 8.5C1.6 12.0346 4.46538 14.9 8 14.9ZM8.8 7.3V10.9H9.6V12.5H6.4V10.9H7.2V8.9H6.4V7.3H8.8ZM9.2 5.3C9.2 5.96274 8.66272 6.5 8 6.5C7.33728 6.5 6.8 5.96274 6.8 5.3C6.8 4.63726 7.33728 4.1 8 4.1C8.66272 4.1 9.2 4.63726 9.2 5.3Z" fill="#1D4ED8"/>
</svg>
