<svg width="22" height="21" viewBox="0 0 22 21" fill="none" xmlns="http://www.w3.org/2000/svg">
<path d="M11 20.5C4.92487 20.5 0 16.0228 0 10.5C0 4.97715 4.92487 0.5 11 0.5C17.0751 0.5 22 4.97715 22 10.5C22 16.0228 17.0751 20.5 11 20.5ZM11 18.5C15.8601 18.5 19.8 14.9183 19.8 10.5C19.8 6.08172 15.8601 2.5 11 2.5C6.13989 2.5 2.2 6.08172 2.2 10.5C2.2 14.9183 6.13989 18.5 11 18.5ZM11 9.0858L14.1112 6.25736L15.6669 7.67157L12.5556 10.5L15.6669 13.3284L14.1112 14.7426L11 11.9142L7.88873 14.7426L6.3331 13.3284L9.44438 10.5L6.3331 7.67157L7.88873 6.25736L11 9.0858Z" fill="black"/>
</svg>
